<?xml version="1.0" encoding="UTF-8" standalone="no"?>
<!-- Created with Inkscape (http://www.inkscape.org/) -->

<svg
   xmlns:dc="http://purl.org/dc/elements/1.1/"
   xmlns:cc="http://creativecommons.org/ns#"
   xmlns:rdf="http://www.w3.org/1999/02/22-rdf-syntax-ns#"
   xmlns:svg="http://www.w3.org/2000/svg"
   xmlns="http://www.w3.org/2000/svg"
   xmlns:sodipodi="http://sodipodi.sourceforge.net/DTD/sodipodi-0.dtd"
   xmlns:inkscape="http://www.inkscape.org/namespaces/inkscape"
   width="100.07359mm"
   height="99.923553mm"
   viewBox="0 0 100.07359 99.923553"
   version="1.1"
   id="svg8"
   inkscape:version="0.92.2 5c3e80d, 2017-08-06"
   sodipodi:docname="eyegore.svg"
   inkscape:export-filename="/home/dev/Pictures/EyeGore/eyegore.png"
   inkscape:export-xdpi="16.268436"
   inkscape:export-ydpi="16.268436">
  <defs
     id="defs2" />
  <sodipodi:namedview
     id="base"
     pagecolor="#ffffff"
     bordercolor="#666666"
     borderopacity="1.0"
     inkscape:pageopacity="0.0"
     inkscape:pageshadow="2"
     inkscape:zoom="0.125"
     inkscape:cx="47.057125"
     inkscape:cy="-215.38247"
     inkscape:document-units="mm"
     inkscape:current-layer="layer1"
     showgrid="false"
     inkscape:window-width="1280"
     inkscape:window-height="995"
     inkscape:window-x="0"
     inkscape:window-y="0"
     inkscape:window-maximized="1"
     fit-margin-top="0"
     fit-margin-left="0"
     fit-margin-right="0"
     fit-margin-bottom="0" />
  <metadata
     id="metadata5">
    <rdf:RDF>
      <cc:Work
         rdf:about="">
        <dc:format>image/svg+xml</dc:format>
        <dc:type
           rdf:resource="http://purl.org/dc/dcmitype/StillImage" />
        <dc:title></dc:title>
      </cc:Work>
    </rdf:RDF>
  </metadata>
  <g
     inkscape:label="Layer 1"
     inkscape:groupmode="layer"
     id="layer1"
     transform="translate(-67.080473,-63.887697)">
    <g
       id="g842">
      <ellipse
         ry="48.334755"
         rx="48.409771"
         cy="113.84947"
         cx="117.11726"
         id="path902-3-6"
         style="fill:#f5e6e6;fill-opacity:1;stroke:#ef1010;stroke-width:3.25404024;stroke-miterlimit:4;stroke-dasharray:none;stroke-opacity:1" />
      <path
         inkscape:connector-curvature="0"
         id="path900"
         d="m 82.92548,85.817212 c 4.951528,2.773764 5.260999,2.773764 5.260999,2.773764 l 3.713648,-3.051138 -3.094706,-6.102279 11.450409,-6.379654 2.6305,5.270149 5.41572,-1.248196 0.77369,-6.379651 13.46197,0.416062 v 5.270151 l 5.7252,2.219009 4.02312,-4.715395 9.90306,5.408836 -2.47578,5.963589 4.02313,4.576709 6.34414,-2.3577 7.11783,10.124227 -5.7252,3.883255 v 7.07312 l 7.11781,-1.10952 1.54735,11.64981 -7.11781,1.80294 -2.16629,6.24096 6.34414,1.94164 -4.48733,9.84686 h -7.11783 l -3.24944,2.08031 2.32103,7.62786 -10.05777,5.13147 -2.93998,-5.27016 -4.02312,0.97081 -2.47577,5.13148 -12.22408,0.13867 -0.61893,-4.71539 -4.17786,-1.38688 c 0,0 -3.24944,5.13147 -3.86838,5.13147 -0.61895,0 -12.069354,-5.54753 -12.069354,-5.54753 l 1.856824,-5.82491 -2.011558,-4.43802 -7.427294,2.35771 -6.963085,-10.81768 5.879939,-3.32852 -1.547355,-6.10228 -6.808351,-0.55476 -1.083148,-13.59142 h 6.808354 l 1.392618,-4.43804 -5.570472,-6.102258 z"
         style="fill:none;fill-rule:evenodd;stroke:#ef1010;stroke-width:3.28863835;stroke-linecap:butt;stroke-linejoin:miter;stroke-miterlimit:4;stroke-dasharray:none;stroke-opacity:1" />
      <ellipse
         ry="32.115334"
         rx="31.756582"
         cy="113.53419"
         cx="117.2271"
         id="path902-3"
         style="fill:none;fill-opacity:1;stroke:#ef1010;stroke-width:3.1494534;stroke-miterlimit:4;stroke-dasharray:none;stroke-opacity:1" />
      <ellipse
         ry="26.629602"
         rx="25.436113"
         cy="113.8977"
         cx="118.07612"
         id="path902"
         style="fill:#423f3f;fill-opacity:1;stroke:#ef1010;stroke-width:3.25404024;stroke-miterlimit:4;stroke-dasharray:none;stroke-opacity:1" />
      <ellipse
         ry="11.142429"
         rx="11.39779"
         cy="114.57291"
         cx="117.73743"
         id="path902-7"
         style="fill:#080000;fill-opacity:1;stroke:#ef1010;stroke-width:3.25404024;stroke-miterlimit:4;stroke-dasharray:none;stroke-opacity:1" />
      <path
         inkscape:connector-curvature="0"
         id="path949"
         d="m 102.12994,96.082327 1.78332,-2.202422 6.73697,-2.202422 2.1796,0.917677 2.5759,6.974332 0.39629,3.303628 -4.95366,1.83536 z"
         style="fill:#efecec;fill-opacity:1;fill-rule:evenodd;stroke:none;stroke-width:0.26698095px;stroke-linecap:butt;stroke-linejoin:miter;stroke-opacity:1" />
      <path
         inkscape:connector-curvature="0"
         id="path951"
         d="m 110.7674,113.91779 1.95387,-1.99079 4.29852,-0.54294 0.97692,-0.54293 -0.78153,-1.80979 -0.97694,-0.72393 -3.51697,-0.54293 -3.51697,1.99077 -1.17231,1.99078 z"
         style="fill:#efecec;fill-opacity:1;fill-rule:evenodd;stroke:none;stroke-width:0.52652717px;stroke-linecap:butt;stroke-linejoin:miter;stroke-opacity:1" />
    </g>
  </g>
</svg>
